<svg xmlns="http://www.w3.org/2000/svg" viewBox="0 0 800 600">
  <rect width="800" height="600" fill="#F1F6F2"/>
  <ellipse cx="400" cy="524" rx="270" ry="26" fill="#DCE7DE"/>
  <!-- back phone: recent sightings list -->
  <g>
    <rect x="430" y="120" width="180" height="360" rx="26" fill="#FFFFFF" stroke="#E1E8E1" stroke-width="2"/>
    <rect x="452" y="152" width="80" height="10" rx="5" fill="#E3EAE3"/>
    <circle cx="466" cy="200" r="12" fill="#E8F2EC"/>
    <rect x="488" y="190" width="80" height="8" rx="4" fill="#D8E1D8"/>
    <rect x="488" y="206" width="56" height="7" rx="3.5" fill="#ECF0EB"/>
    <circle cx="466" cy="248" r="12" fill="#E8F2EC"/>
    <rect x="488" y="238" width="68" height="8" rx="4" fill="#D8E1D8"/>
    <rect x="488" y="254" width="62" height="7" rx="3.5" fill="#ECF0EB"/>
    <circle cx="466" cy="296" r="12" fill="#E8F2EC"/>
    <rect x="488" y="286" width="86" height="8" rx="4" fill="#D8E1D8"/>
    <rect x="488" y="302" width="48" height="7" rx="3.5" fill="#ECF0EB"/>
    <circle cx="466" cy="344" r="12" fill="#E8F2EC"/>
    <rect x="488" y="334" width="72" height="8" rx="4" fill="#D8E1D8"/>
    <rect x="488" y="350" width="58" height="7" rx="3.5" fill="#ECF0EB"/>
  </g>
  <!-- front phone: map, species card, log button -->
  <g>
    <rect x="200" y="88" width="210" height="420" rx="30" fill="#FFFFFF" stroke="#DDE5DD" stroke-width="2"/>
    <rect x="278" y="104" width="54" height="8" rx="4" fill="#E7EDE7"/>
    <!-- sightings map -->
    <rect x="224" y="128" width="162" height="132" rx="12" fill="#E8F2EC"/>
    <polyline points="238,244 262,210 292,222 316,186 344,196 368,164"
      fill="none" stroke="#8FC9AE" stroke-width="3" stroke-dasharray="1 7" stroke-linecap="round"/>
    <circle cx="262" cy="210" r="4" fill="#2E8563"/>
    <circle cx="316" cy="186" r="4" fill="#2E8563"/>
    <polygon points="344,206 336,188 352,188" fill="#166B4D"/>
    <circle cx="344" cy="184" r="10" fill="#166B4D"/>
    <circle cx="344" cy="182" r="3.5" fill="#FFFFFF"/>
    <!-- species card with bird -->
    <rect x="224" y="274" width="162" height="86" rx="12" fill="#FAFBFA" stroke="#E6EBE6" stroke-width="2"/>
    <g>
      <polygon points="240,312 226,302 240,320" fill="#2E8563"/>
      <ellipse cx="256" cy="314" rx="17" ry="12" fill="#166B4D"/>
      <circle cx="271" cy="301" r="9" fill="#166B4D"/>
      <polygon points="279,299 289,302 279,305" fill="#2E8563"/>
      <circle cx="273" cy="299" r="1.8" fill="#FFFFFF"/>
      <line x1="252" y1="326" x2="252" y2="334" stroke="#2E8563" stroke-width="2" stroke-linecap="round"/>
      <line x1="260" y1="326" x2="260" y2="334" stroke="#2E8563" stroke-width="2" stroke-linecap="round"/>
    </g>
    <rect x="300" y="296" width="72" height="9" rx="4.5" fill="#D8E1D8"/>
    <rect x="300" y="314" width="52" height="8" rx="4" fill="#ECF0EB"/>
    <rect x="300" y="332" width="40" height="12" rx="6" fill="#E8F2EC"/>
    <!-- log sighting button -->
    <rect x="224" y="376" width="162" height="40" rx="20" fill="#166B4D"/>
    <rect x="266" y="392" width="78" height="9" rx="4.5" fill="#FFFFFF"/>
    <!-- tab bar -->
    <rect x="224" y="440" width="162" height="24" rx="12" fill="#F1F4F0"/>
    <circle cx="252" cy="452" r="5" fill="#166B4D"/>
    <circle cx="305" cy="452" r="5" fill="#D2DDD2"/>
    <circle cx="358" cy="452" r="5" fill="#D2DDD2"/>
  </g>
</svg>
