<svg xmlns="http://www.w3.org/2000/svg" viewBox="0 0 800 600">
  <rect width="800" height="600" fill="#F5F5F0"/>
  <!-- browser frame -->
  <rect x="90" y="80" width="620" height="440" rx="16" fill="#FFFFFF" stroke="#E3E1D9" stroke-width="2"/>
  <line x1="91" y1="126" x2="709" y2="126" stroke="#ECEAE2" stroke-width="2"/>
  <circle cx="116" cy="103" r="5" fill="#DAD8D0"/>
  <circle cx="134" cy="103" r="5" fill="#DAD8D0"/>
  <circle cx="152" cy="103" r="5" fill="#DAD8D0"/>
  <rect x="180" y="94" width="240" height="18" rx="9" fill="#F1F0EA"/>
  <!-- toolbar: title + filter pills -->
  <rect x="130" y="146" width="150" height="11" rx="5.5" fill="#3A3E48"/>
  <rect x="536" y="142" width="64" height="22" rx="11" fill="#E8F2EC"/>
  <rect x="550" y="149" width="36" height="8" rx="4" fill="#166B4D"/>
  <rect x="608" y="142" width="62" height="22" rx="11" fill="#F1F0EA"/>
  <rect x="622" y="149" width="34" height="8" rx="4" fill="#C9C6BC"/>
  <!-- tile: bar chart -->
  <g>
    <rect x="130" y="180" width="270" height="152" rx="12" fill="#FAFAF7" stroke="#ECEAE2" stroke-width="2"/>
    <rect x="146" y="196" width="80" height="8" rx="4" fill="#DEDCD4"/>
    <rect x="150" y="266" width="22" height="50" rx="5" fill="#CCE3D6"/>
    <rect x="186" y="240" width="22" height="76" rx="5" fill="#166B4D"/>
    <rect x="222" y="256" width="22" height="60" rx="5" fill="#CCE3D6"/>
    <rect x="258" y="226" width="22" height="90" rx="5" fill="#166B4D"/>
    <rect x="294" y="248" width="22" height="68" rx="5" fill="#CCE3D6"/>
    <rect x="330" y="234" width="22" height="82" rx="5" fill="#2E8563"/>
  </g>
  <!-- tile: donut -->
  <g>
    <rect x="420" y="180" width="250" height="152" rx="12" fill="#FAFAF7" stroke="#ECEAE2" stroke-width="2"/>
    <rect x="436" y="196" width="70" height="8" rx="4" fill="#DEDCD4"/>
    <circle cx="500" cy="266" r="38" fill="none" stroke="#CCE3D6" stroke-width="15"/>
    <circle cx="500" cy="266" r="38" fill="none" stroke="#166B4D" stroke-width="15"
            stroke-dasharray="140 240" stroke-linecap="round" transform="rotate(-90 500 266)"/>
    <circle cx="576" cy="248" r="5" fill="#166B4D"/>
    <rect x="590" y="244" width="52" height="8" rx="4" fill="#DEDCD4"/>
    <circle cx="576" cy="276" r="5" fill="#CCE3D6"/>
    <rect x="590" y="272" width="40" height="8" rx="4" fill="#E8E6DE"/>
  </g>
  <!-- tile: line chart -->
  <g>
    <rect x="130" y="352" width="270" height="140" rx="12" fill="#FAFAF7" stroke="#ECEAE2" stroke-width="2"/>
    <rect x="146" y="368" width="90" height="8" rx="4" fill="#DEDCD4"/>
    <polyline points="150,462 190,438 230,448 270,414 310,424 350,398 384,406"
      fill="none" stroke="#166B4D" stroke-width="4" stroke-linecap="round" stroke-linejoin="round"/>
    <circle cx="270" cy="414" r="6" fill="#FFFFFF" stroke="#166B4D" stroke-width="3"/>
  </g>
  <!-- tile: ranked findings -->
  <g>
    <rect x="420" y="352" width="250" height="140" rx="12" fill="#FAFAF7" stroke="#ECEAE2" stroke-width="2"/>
    <rect x="436" y="368" width="80" height="8" rx="4" fill="#DEDCD4"/>
    <rect x="436" y="392" width="120" height="8" rx="4" fill="#D5D9CE"/>
    <rect x="602" y="388" width="52" height="16" rx="8" fill="#E8F2EC"/>
    <rect x="612" y="394" width="32" height="4" rx="2" fill="#166B4D"/>
    <rect x="436" y="424" width="100" height="8" rx="4" fill="#D5D9CE"/>
    <rect x="602" y="420" width="52" height="16" rx="8" fill="#E8F2EC"/>
    <rect x="612" y="426" width="24" height="4" rx="2" fill="#2E8563"/>
    <rect x="436" y="456" width="112" height="8" rx="4" fill="#D5D9CE"/>
    <rect x="602" y="452" width="52" height="16" rx="8" fill="#F1F0EA"/>
    <rect x="612" y="458" width="18" height="4" rx="2" fill="#C9C6BC"/>
  </g>
</svg>
