<svg xmlns="http://www.w3.org/2000/svg" viewBox="0 0 800 600">
  <rect width="800" height="600" fill="#F2F5EE"/>
  <!-- browser frame -->
  <rect x="90" y="80" width="620" height="440" rx="16" fill="#FFFFFF" stroke="#E1E3DB" stroke-width="2"/>
  <line x1="91" y1="126" x2="709" y2="126" stroke="#EAECE3" stroke-width="2"/>
  <circle cx="116" cy="103" r="5" fill="#D7DACF"/>
  <circle cx="134" cy="103" r="5" fill="#D7DACF"/>
  <circle cx="152" cy="103" r="5" fill="#D7DACF"/>
  <rect x="180" y="94" width="240" height="18" rx="9" fill="#F0F2EB"/>
  <!-- search bar + button -->
  <rect x="130" y="146" width="430" height="40" rx="20" fill="#FAFBF7" stroke="#E3E6DD" stroke-width="2"/>
  <circle cx="156" cy="166" r="7" fill="none" stroke="#166B4D" stroke-width="2.5"/>
  <line x1="161" y1="171" x2="167" y2="177" stroke="#166B4D" stroke-width="2.5" stroke-linecap="round"/>
  <rect x="180" y="162" width="130" height="8" rx="4" fill="#D8DDD2"/>
  <rect x="572" y="146" width="98" height="40" rx="20" fill="#166B4D"/>
  <rect x="596" y="162" width="50" height="8" rx="4" fill="#FFFFFF"/>
  <!-- source document with highlighted evidence -->
  <g>
    <rect x="130" y="210" width="250" height="270" rx="10" fill="#FFFFFF" stroke="#E3E1D9" stroke-width="2"/>
    <rect x="150" y="230" width="120" height="10" rx="5" fill="#3A3E48"/>
    <rect x="150" y="256" width="210" height="7" rx="3.5" fill="#E2E4DC"/>
    <rect x="150" y="272" width="196" height="7" rx="3.5" fill="#E2E4DC"/>
    <rect x="146" y="288" width="218" height="16" rx="4" fill="#E8F2EC"/>
    <rect x="150" y="292" width="180" height="7" rx="3.5" fill="#2E8563"/>
    <rect x="150" y="316" width="204" height="7" rx="3.5" fill="#E2E4DC"/>
    <rect x="150" y="332" width="188" height="7" rx="3.5" fill="#E2E4DC"/>
    <rect x="150" y="348" width="210" height="7" rx="3.5" fill="#E2E4DC"/>
    <rect x="146" y="364" width="218" height="16" rx="4" fill="#E8F2EC"/>
    <rect x="150" y="368" width="160" height="7" rx="3.5" fill="#2E8563"/>
    <rect x="150" y="392" width="196" height="7" rx="3.5" fill="#E2E4DC"/>
    <rect x="150" y="408" width="176" height="7" rx="3.5" fill="#E2E4DC"/>
    <rect x="150" y="424" width="204" height="7" rx="3.5" fill="#E2E4DC"/>
    <rect x="150" y="440" width="140" height="7" rx="3.5" fill="#E2E4DC"/>
  </g>
  <!-- ranked evidence results -->
  <g>
    <rect x="410" y="210" width="260" height="78" rx="10" fill="#FAFBF7" stroke="#E6E8DF" stroke-width="2"/>
    <rect x="426" y="226" width="130" height="9" rx="4.5" fill="#3A3E48"/>
    <rect x="426" y="248" width="170" height="7" rx="3.5" fill="#D8DDD2"/>
    <rect x="426" y="264" width="120" height="7" rx="3.5" fill="#E2E4DC"/>
    <rect x="612" y="222" width="44" height="18" rx="9" fill="#E8F2EC"/>
    <rect x="621" y="229" width="26" height="4" rx="2" fill="#166B4D"/>
  </g>
  <g>
    <rect x="410" y="306" width="260" height="78" rx="10" fill="#FAFBF7" stroke="#E6E8DF" stroke-width="2"/>
    <rect x="426" y="322" width="110" height="9" rx="4.5" fill="#3A3E48"/>
    <rect x="426" y="344" width="160" height="7" rx="3.5" fill="#D8DDD2"/>
    <rect x="426" y="360" width="132" height="7" rx="3.5" fill="#E2E4DC"/>
    <rect x="612" y="318" width="44" height="18" rx="9" fill="#E8F2EC"/>
    <rect x="621" y="325" width="20" height="4" rx="2" fill="#2E8563"/>
  </g>
  <g>
    <rect x="410" y="402" width="260" height="78" rx="10" fill="#FAFBF7" stroke="#E6E8DF" stroke-width="2"/>
    <rect x="426" y="418" width="140" height="9" rx="4.5" fill="#3A3E48"/>
    <rect x="426" y="440" width="150" height="7" rx="3.5" fill="#D8DDD2"/>
    <rect x="426" y="456" width="110" height="7" rx="3.5" fill="#E2E4DC"/>
    <rect x="612" y="414" width="44" height="18" rx="9" fill="#F0F2EB"/>
    <rect x="621" y="421" width="14" height="4" rx="2" fill="#C0C6B8"/>
  </g>
</svg>
